<?xml version="1.0" ?>
<!DOCTYPE svg  PUBLIC '-//W3C//DTD SVG 1.1//EN'  'http://www.w3.org/Graphics/SVG/1.1/DTD/svg11.dtd'>
<svg viewBox="0 0 70 70" width="70px" height="70px" xmlns="http://www.w3.org/2000/svg">
  <rect id="logo-bg" x="0" y="0" width="70" height="70" fill="#16a085"/>

  <!-- Shadow -->
  <g id="logo-shadow" fill-opacity=".12" fill="black">
    <path d="M 10 45 L 10 35 L 15 35 L 25 45 L 25 30 L 45 30 L 50 35 L 55 30 L 55 25 L 60 25 L 105 70 L 35 70" />
  </g>

  <!-- JTM -->
  <g id="logo-jtm" fill="white">
    <path d="M 10 35 l 0 10 l 15 0 l 0 -15 l 5 0 l 0 15 l 5 0 l 0 -15 l 5 0 l 0 15 l 5 0 l 0 -13 l 5 5 l 5 -5 l 0 13 l 5 0 l 0 -20 -5 0 -5 5 l -5 -5 l -25 0 l 0 15 l -5 0 l 0 -5" />
  </g>
</svg>
