<?xml version="1.0" ?>
<!DOCTYPE svg  PUBLIC '-//W3C//DTD SVG 1.1//EN'  'http://www.w3.org/Graphics/SVG/1.1/DTD/svg11.dtd'>
<svg viewBox="0 0 200 70" width="200px" height="70px" xml:space="preserve" xmlns="http://www.w3.org/2000/svg" xmlns:xlink="http://www.w3.org/1999/xlink" fill="white">
  <!-- <rect id="logo-bg" x="0" y="0" width="70" height="70" fill="#a0c2ce"/> -->
  <rect id="logo-bg" x="0" y="0" width="200" height="70" fill="#16a085"/>

  <g id="logo-shadow" fill-opacity=".12" fill="black">
    <!-- <path d="M 10 45 L 10 35 L 15 35 L 25 45 L 25 30 L 45 30 L 50 35 L 55 30 L 55 25 L 60 25 L 105 70 L 35 70" /> -->
    <path d="M 40 55 l 0 -20 l 10 0 l 20 20 l 0 -30 l 40 0 l 10 10 l 10 -10 l 0 -10 l 10 0 l 90 90 l -140 0"/>
  </g>

  <!-- J -->
  <g id="logo-j">
    <path d="M 40 35 l 0 20 l 30 0 l 0 -40 l -10 0 l 0 30 l -10 0 l 0 -10" />
  </g>

  <!-- T -->
  <g id="logo-t">
    <path d="M 70 15 l 0 10 l 10 0 l 0 30 l 10 0 l 0 -30 l 10 0 l 0 -10"/>
  </g>

  <!-- M -->
  <g id="logo-m">
    <path d="M 100 15 l 0 40 l 10 0 l 0 -40 m 20 0 l 0 40 l 10 0 l 0 -40" />
    <path d="M 110 15 l 0 14 l 10 10 l 10 -10 l 0 -14 l -10 10 l -10 -10" />
  </g>


  <!-- J shadow -->
  <!-- <g id="logo-j-shadow">
    <path d="M 0 350 L 0 250 L 50 250 L 150 350 L 150 150 L 500 500 L 150 500" fill="black" fill-opacity=".5" />
  </g> -->

  <!-- T shadow -->
  <!-- <g id="logo-t-shadow">
    <path d="M 200 350 L 200 250 L 150 200 L 300 200 L 600 500 L 350 500" fill="black" fill-opacity=".5" />
  </g> -->
</svg>
