<?xml version="1.0" ?>
<!DOCTYPE svg  PUBLIC '-//W3C//DTD SVG 1.1//EN'  'http://www.w3.org/Graphics/SVG/1.1/DTD/svg11.dtd'>
<svg viewBox="0 0 200 70" width="200px" height="70px" xmlns="http://www.w3.org/2000/svg">
  <rect id="logo-bg" x="0" y="0" width="200" height="70" fill="#16a085"/>

  <!-- Shadow -->
  <g id="logo-shadow" fill-opacity=".12" fill="black">
    <path d="M 40 55 l 0 -20 l 10 0 l 20 20 l 0 -30 l 40 0 l 10 10 l 10 -10 l 0 -10 l 10 0 l 90 90 l -140 0"/>
  </g>

  <!-- JTM -->
  <g id="logo-jtm" fill="white">
    <path d="M 40 35 l 0 20 l 30 0 l 0 -30 l 10 0 l 0 30 l 10 0 l 0 -30 l 10 0 l 0 30 l 10 0 l 0 -26 l 10 10 l 10 -10 l 0 26 l 10 0 l 0 -40 -10 0 -10 10 l -10 -10 l -50 0 l 0 30 l -10 0 l 0 -10" />
  </g>
</svg>
